<svg width="242" height="148" viewBox="0 0 242 148" fill="none" xmlns="http://www.w3.org/2000/svg">
<path d="M114.104 51.472C121.016 51.472 126.36 53.552 130.136 57.712C133.976 61.872 135.896 67.504 135.896 74.608V106H114.68V77.296C114.68 74.992 113.976 73.2 112.568 71.92C111.224 70.576 109.4 69.904 107.096 69.904C104.728 69.904 102.872 70.576 101.528 71.92C100.184 73.2 99.5116 74.992 99.5116 77.296V106H78.2956V77.296C78.2956 74.992 77.5916 73.2 76.1836 71.92C74.8396 70.576 73.0156 69.904 70.7116 69.904C68.3436 69.904 66.4876 70.576 65.1436 71.92C63.7996 73.2 63.1276 74.992 63.1276 77.296V106H41.8156V51.856H63.1276V59.152C64.6636 56.848 66.7436 54.992 69.3676 53.584C72.0556 52.176 75.1916 51.472 78.7756 51.472C82.6796 51.472 86.1356 52.336 89.1436 54.064C92.1516 55.728 94.5516 58.096 96.3436 61.168C98.3276 58.352 100.856 56.048 103.928 54.256C107 52.4 110.392 51.472 114.104 51.472ZM155.688 106.768C151.976 106.768 149 105.776 146.76 103.792C144.52 101.808 143.4 99.312 143.4 96.304C143.4 93.232 144.52 90.704 146.76 88.72C149 86.672 151.976 85.648 155.688 85.648C159.336 85.648 162.28 86.672 164.52 88.72C166.76 90.704 167.88 93.232 167.88 96.304C167.88 99.312 166.76 101.808 164.52 103.792C162.28 105.776 159.336 106.768 155.688 106.768Z" fill="white"/>
<path d="M53.872 125.04C54.5653 125.04 55.184 125.184 55.728 125.472C56.2827 125.76 56.7147 126.187 57.024 126.752C57.344 127.317 57.504 128 57.504 128.8V134H55.696V129.072C55.696 128.283 55.4987 127.68 55.104 127.264C54.7093 126.837 54.1707 126.624 53.488 126.624C52.8053 126.624 52.2613 126.837 51.856 127.264C51.4613 127.68 51.264 128.283 51.264 129.072V134H49.456V129.072C49.456 128.283 49.2587 127.68 48.864 127.264C48.4693 126.837 47.9307 126.624 47.248 126.624C46.5653 126.624 46.0213 126.837 45.616 127.264C45.2213 127.68 45.024 128.283 45.024 129.072V134H43.2V125.184H45.024V126.192C45.3227 125.829 45.7013 125.547 46.16 125.344C46.6187 125.141 47.1093 125.04 47.632 125.04C48.336 125.04 48.9653 125.189 49.52 125.488C50.0747 125.787 50.5013 126.219 50.8 126.784C51.0667 126.251 51.4827 125.829 52.048 125.52C52.6133 125.2 53.2213 125.04 53.872 125.04ZM67.6773 126.672H66.0453V134H64.2053V126.672H63.1653V125.184H64.2053V124.56C64.2053 123.547 64.4719 122.811 65.0053 122.352C65.5493 121.883 66.3973 121.648 67.5493 121.648V123.168C66.9946 123.168 66.6053 123.275 66.3813 123.488C66.1573 123.691 66.0453 124.048 66.0453 124.56V125.184H67.6773V126.672ZM73.1178 134.144C72.2858 134.144 71.5338 133.957 70.8618 133.584C70.1898 133.2 69.6618 132.667 69.2778 131.984C68.8938 131.291 68.7018 130.491 68.7018 129.584C68.7018 128.688 68.8991 127.893 69.2938 127.2C69.6884 126.507 70.2271 125.973 70.9098 125.6C71.5924 125.227 72.3551 125.04 73.1978 125.04C74.0404 125.04 74.8031 125.227 75.4858 125.6C76.1684 125.973 76.7071 126.507 77.1018 127.2C77.4964 127.893 77.6938 128.688 77.6938 129.584C77.6938 130.48 77.4911 131.275 77.0858 131.968C76.6804 132.661 76.1258 133.2 75.4218 133.584C74.7284 133.957 73.9604 134.144 73.1178 134.144ZM73.1178 132.56C73.5871 132.56 74.0244 132.448 74.4298 132.224C74.8458 132 75.1818 131.664 75.4378 131.216C75.6938 130.768 75.8218 130.224 75.8218 129.584C75.8218 128.944 75.6991 128.405 75.4538 127.968C75.2084 127.52 74.8831 127.184 74.4778 126.96C74.0724 126.736 73.6351 126.624 73.1658 126.624C72.6964 126.624 72.2591 126.736 71.8538 126.96C71.4591 127.184 71.1444 127.52 70.9098 127.968C70.6751 128.405 70.5578 128.944 70.5578 129.584C70.5578 130.533 70.7978 131.269 71.2778 131.792C71.7684 132.304 72.3818 132.56 73.1178 132.56ZM81.3209 126.464C81.5875 126.016 81.9395 125.669 82.3769 125.424C82.8249 125.168 83.3529 125.04 83.9609 125.04V126.928H83.4969C82.7822 126.928 82.2382 127.109 81.8649 127.472C81.5022 127.835 81.3209 128.464 81.3209 129.36V134H79.4969V125.184H81.3209V126.464ZM100.466 125.04C101.159 125.04 101.778 125.184 102.322 125.472C102.876 125.76 103.308 126.187 103.618 126.752C103.938 127.317 104.098 128 104.098 128.8V134H102.29V129.072C102.29 128.283 102.092 127.68 101.698 127.264C101.303 126.837 100.764 126.624 100.082 126.624C99.3991 126.624 98.8551 126.837 98.4498 127.264C98.0551 127.68 97.8578 128.283 97.8578 129.072V134H96.0498V129.072C96.0498 128.283 95.8524 127.68 95.4578 127.264C95.0631 126.837 94.5244 126.624 93.8418 126.624C93.1591 126.624 92.6151 126.837 92.2098 127.264C91.8151 127.68 91.6178 128.283 91.6178 129.072V134H89.7938V125.184H91.6178V126.192C91.9164 125.829 92.2951 125.547 92.7538 125.344C93.2124 125.141 93.7031 125.04 94.2258 125.04C94.9298 125.04 95.5591 125.189 96.1138 125.488C96.6684 125.787 97.0951 126.219 97.3938 126.784C97.6604 126.251 98.0764 125.829 98.6418 125.52C99.2071 125.2 99.8151 125.04 100.466 125.04ZM114.403 125.184V134H112.579V132.96C112.291 133.323 111.912 133.611 111.443 133.824C110.984 134.027 110.493 134.128 109.971 134.128C109.277 134.128 108.653 133.984 108.099 133.696C107.555 133.408 107.123 132.981 106.803 132.416C106.493 131.851 106.339 131.168 106.339 130.368V125.184H108.147V130.096C108.147 130.885 108.344 131.493 108.739 131.92C109.133 132.336 109.672 132.544 110.355 132.544C111.037 132.544 111.576 132.336 111.971 131.92C112.376 131.493 112.579 130.885 112.579 130.096V125.184H114.403ZM120.009 134.144C119.316 134.144 118.692 134.021 118.137 133.776C117.593 133.52 117.161 133.179 116.841 132.752C116.521 132.315 116.351 131.829 116.329 131.296H118.217C118.249 131.669 118.425 131.984 118.745 132.24C119.076 132.485 119.487 132.608 119.977 132.608C120.489 132.608 120.884 132.512 121.161 132.32C121.449 132.117 121.593 131.861 121.593 131.552C121.593 131.221 121.433 130.976 121.113 130.816C120.804 130.656 120.308 130.48 119.625 130.288C118.964 130.107 118.425 129.931 118.009 129.76C117.593 129.589 117.231 129.328 116.921 128.976C116.623 128.624 116.473 128.16 116.473 127.584C116.473 127.115 116.612 126.688 116.889 126.304C117.167 125.909 117.561 125.6 118.073 125.376C118.596 125.152 119.193 125.04 119.865 125.04C120.868 125.04 121.673 125.296 122.281 125.808C122.9 126.309 123.231 126.997 123.273 127.872H121.449C121.417 127.477 121.257 127.163 120.969 126.928C120.681 126.693 120.292 126.576 119.801 126.576C119.321 126.576 118.953 126.667 118.697 126.848C118.441 127.029 118.313 127.269 118.313 127.568C118.313 127.803 118.399 128 118.569 128.16C118.74 128.32 118.948 128.448 119.193 128.544C119.439 128.629 119.801 128.741 120.281 128.88C120.921 129.051 121.444 129.227 121.849 129.408C122.265 129.579 122.623 129.835 122.921 130.176C123.22 130.517 123.375 130.971 123.385 131.536C123.385 132.037 123.247 132.485 122.969 132.88C122.692 133.275 122.297 133.584 121.785 133.808C121.284 134.032 120.692 134.144 120.009 134.144ZM126.284 124.016C125.954 124.016 125.676 123.904 125.452 123.68C125.228 123.456 125.116 123.179 125.116 122.848C125.116 122.517 125.228 122.24 125.452 122.016C125.676 121.792 125.954 121.68 126.284 121.68C126.604 121.68 126.876 121.792 127.1 122.016C127.324 122.24 127.436 122.517 127.436 122.848C127.436 123.179 127.324 123.456 127.1 123.68C126.876 123.904 126.604 124.016 126.284 124.016ZM127.18 125.184V134H125.356V125.184H127.18ZM128.967 129.584C128.967 128.677 129.148 127.883 129.511 127.2C129.884 126.507 130.396 125.973 131.047 125.6C131.698 125.227 132.444 125.04 133.287 125.04C134.354 125.04 135.234 125.296 135.927 125.808C136.631 126.309 137.106 127.029 137.351 127.968H135.383C135.223 127.531 134.967 127.189 134.615 126.944C134.263 126.699 133.82 126.576 133.287 126.576C132.54 126.576 131.943 126.843 131.495 127.376C131.058 127.899 130.839 128.635 130.839 129.584C130.839 130.533 131.058 131.275 131.495 131.808C131.943 132.341 132.54 132.608 133.287 132.608C134.343 132.608 135.042 132.144 135.383 131.216H137.351C137.095 132.112 136.615 132.827 135.911 133.36C135.207 133.883 134.332 134.144 133.287 134.144C132.444 134.144 131.698 133.957 131.047 133.584C130.396 133.2 129.884 132.667 129.511 131.984C129.148 131.291 128.967 130.491 128.967 129.584Z" fill="white"/>
</svg>
